<svg width="60" height="38" viewBox="0 0 60 38" fill="none" xmlns="http://www.w3.org/2000/svg">
<rect width="60" height="38" rx="19" fill="#294060"/>
<path d="M19 11H41V26.1111C41 26.3469 40.9034 26.573 40.7315 26.7397C40.5596 26.9064 40.3264 27 40.0833 27H19.9167C19.6736 27 19.4404 26.9064 19.2685 26.7397C19.0966 26.573 19 26.3469 19 26.1111V11Z" stroke="white" stroke-width="2" stroke-linecap="round" stroke-linejoin="round"/>
<path d="M19 11H41V26.1111C41 26.3469 40.9034 26.573 40.7315 26.7397C40.5596 26.9064 40.3264 27 40.0833 27H19.9167C19.6736 27 19.4404 26.9064 19.2685 26.7397C19.0966 26.573 19 26.3469 19 26.1111V11Z" stroke="white" stroke-width="2" stroke-linecap="round" stroke-linejoin="round"/>
<path d="M41 11L30 21L19 11" stroke="white" stroke-width="2" stroke-linecap="round" stroke-linejoin="round"/>
<path d="M41 11L30 21L19 11" stroke="white" stroke-width="2" stroke-linecap="round" stroke-linejoin="round"/>
</svg>
