<svg width="203" height="60" viewBox="0 0 203 60" fill="none" xmlns="http://www.w3.org/2000/svg">
<path d="M1.125 24V0.71875H4.96875L13.8594 14.7969C14.1302 15.2344 14.5 15.8542 14.9688 16.6562C15.4375 17.4583 15.9062 18.2708 16.375 19.0938C16.3438 18.25 16.3177 17.3958 16.2969 16.5312C16.2865 15.6562 16.2812 15.0052 16.2812 14.5781V0.71875H19.7656V24H15.8906L7.9375 11.4219C7.61458 10.9115 7.14583 10.151 6.53125 9.14062C5.92708 8.11979 5.23958 6.94792 4.46875 5.625C4.52083 6.98958 4.55208 8.16667 4.5625 9.15625C4.58333 10.1354 4.59375 10.8854 4.59375 11.4062V24H1.125ZM28.7656 24.2656C27.1198 24.2656 25.7552 23.849 24.6719 23.0156C23.5885 22.1719 23.0469 20.9271 23.0469 19.2812C23.0469 18.0312 23.3542 17.0729 23.9688 16.4062C24.5938 15.7292 25.401 15.2448 26.3906 14.9531C27.3906 14.6615 28.4479 14.4479 29.5625 14.3125C30.5938 14.1875 31.4115 14.0833 32.0156 14C32.6198 13.9167 33.0469 13.7917 33.2969 13.625C33.5573 13.4583 33.6875 13.1719 33.6875 12.7656V12.625C33.6875 11.8229 33.3958 11.1667 32.8125 10.6562C32.2292 10.1354 31.4115 9.875 30.3594 9.875C29.3073 9.875 28.4479 10.1302 27.7812 10.6406C27.1146 11.1406 26.75 11.7708 26.6875 12.5312H23.4531C23.526 10.9583 24.1875 9.67188 25.4375 8.67188C26.6875 7.67188 28.3438 7.17188 30.4062 7.17188C32.4375 7.17188 34.0365 7.67188 35.2031 8.67188C36.3698 9.67188 36.9531 11.0104 36.9531 12.6875V24H33.7031V21.6562H33.6406C33.2969 22.3229 32.75 22.9271 32 23.4688C31.2604 24 30.1823 24.2656 28.7656 24.2656ZM29.4375 21.6094C30.8958 21.6094 31.9688 21.2344 32.6562 20.4844C33.3542 19.724 33.7031 18.8385 33.7031 17.8281V15.8906C33.4844 16.0677 32.9896 16.2292 32.2188 16.375C31.4479 16.5104 30.625 16.6406 29.75 16.7656C28.8438 16.901 28.0469 17.1562 27.3594 17.5312C26.6719 17.9062 26.3281 18.5104 26.3281 19.3438C26.3281 20.0521 26.6042 20.6094 27.1562 21.0156C27.7188 21.4115 28.4792 21.6094 29.4375 21.6094ZM48.625 7.5V10.2188H45.2812V19.6406C45.2812 20.2552 45.4062 20.6823 45.6562 20.9219C45.9062 21.1615 46.3594 21.2812 47.0156 21.2812H48.625V24H46.5469C43.4948 24 41.9688 22.6875 41.9688 20.0625V10.2188H39.0625V7.5H41.9688V3H45.2812V7.5H48.625ZM57.2031 24.3281C56.0781 24.3281 55.0625 24.0833 54.1562 23.5938C53.2604 23.0938 52.5469 22.3594 52.0156 21.3906C51.4948 20.4219 51.2344 19.2188 51.2344 17.7812V7.5H54.5312V17.375C54.5312 18.6979 54.849 19.6979 55.4844 20.375C56.1198 21.0417 57.0104 21.375 58.1562 21.375C59.2708 21.375 60.2083 21.0312 60.9688 20.3438C61.7396 19.6458 62.125 18.5312 62.125 17V7.5H65.4219V24H62.1875V21.5156C61.0625 23.3906 59.401 24.3281 57.2031 24.3281ZM69.1406 24V7.5H72.2969V10.1719H72.3594C72.6615 9.26562 73.1354 8.5625 73.7812 8.0625C74.4375 7.55208 75.2917 7.29688 76.3438 7.29688C76.5938 7.29688 76.8229 7.30729 77.0312 7.32812C77.2396 7.34896 77.4115 7.36458 77.5469 7.375V10.4531C77.4219 10.4219 77.1979 10.3906 76.875 10.3594C76.5521 10.3177 76.1979 10.2969 75.8125 10.2969C74.8854 10.2969 74.0885 10.6198 73.4219 11.2656C72.7656 11.9115 72.4375 12.9062 72.4375 14.25V24H69.1406ZM84.6406 24.2656C82.9948 24.2656 81.6302 23.849 80.5469 23.0156C79.4635 22.1719 78.9219 20.9271 78.9219 19.2812C78.9219 18.0312 79.2292 17.0729 79.8438 16.4062C80.4688 15.7292 81.276 15.2448 82.2656 14.9531C83.2656 14.6615 84.3229 14.4479 85.4375 14.3125C86.4688 14.1875 87.2865 14.0833 87.8906 14C88.4948 13.9167 88.9219 13.7917 89.1719 13.625C89.4323 13.4583 89.5625 13.1719 89.5625 12.7656V12.625C89.5625 11.8229 89.2708 11.1667 88.6875 10.6562C88.1042 10.1354 87.2865 9.875 86.2344 9.875C85.1823 9.875 84.3229 10.1302 83.6562 10.6406C82.9896 11.1406 82.625 11.7708 82.5625 12.5312H79.3281C79.401 10.9583 80.0625 9.67188 81.3125 8.67188C82.5625 7.67188 84.2188 7.17188 86.2812 7.17188C88.3125 7.17188 89.9115 7.67188 91.0781 8.67188C92.2448 9.67188 92.8281 11.0104 92.8281 12.6875V24H89.5781V21.6562H89.5156C89.1719 22.3229 88.625 22.9271 87.875 23.4688C87.1354 24 86.0573 24.2656 84.6406 24.2656ZM85.3125 21.6094C86.7708 21.6094 87.8438 21.2344 88.5312 20.4844C89.2292 19.724 89.5781 18.8385 89.5781 17.8281V15.8906C89.3594 16.0677 88.8646 16.2292 88.0938 16.375C87.3229 16.5104 86.5 16.6406 85.625 16.7656C84.7188 16.901 83.9219 17.1562 83.2344 17.5312C82.5469 17.9062 82.2031 18.5104 82.2031 19.3438C82.2031 20.0521 82.4792 20.6094 83.0312 21.0156C83.5938 21.4115 84.3542 21.6094 85.3125 21.6094ZM96.8125 24V0.71875H105.438C107.927 0.71875 109.901 1.36979 111.359 2.67188C112.818 3.97396 113.547 5.73958 113.547 7.96875C113.547 9.45833 113.208 10.75 112.531 11.8438C111.854 12.9271 110.901 13.7656 109.672 14.3594C108.443 14.9427 106.995 15.2344 105.328 15.2344H100.281V24H96.8125ZM100.281 12.2344H105.266C106.766 12.2344 107.948 11.8542 108.812 11.0938C109.688 10.3229 110.125 9.28125 110.125 7.96875C110.125 6.65625 109.688 5.625 108.812 4.875C107.948 4.11458 106.766 3.73438 105.266 3.73438H100.281V12.2344ZM119.625 14.5V24H116.328V0.71875H119.625V9.875C120.76 8.07292 122.401 7.17188 124.547 7.17188C125.682 7.17188 126.698 7.42188 127.594 7.92188C128.5 8.41146 129.214 9.14062 129.734 10.1094C130.255 11.0781 130.516 12.2812 130.516 13.7188V24H127.219V14.125C127.219 12.8021 126.901 11.8073 126.266 11.1406C125.63 10.4635 124.745 10.125 123.609 10.125C122.484 10.125 121.536 10.474 120.766 11.1719C120.005 11.8594 119.625 12.9688 119.625 14.5ZM139.266 24.2656C137.62 24.2656 136.255 23.849 135.172 23.0156C134.089 22.1719 133.547 20.9271 133.547 19.2812C133.547 18.0312 133.854 17.0729 134.469 16.4062C135.094 15.7292 135.901 15.2448 136.891 14.9531C137.891 14.6615 138.948 14.4479 140.062 14.3125C141.094 14.1875 141.911 14.0833 142.516 14C143.12 13.9167 143.547 13.7917 143.797 13.625C144.057 13.4583 144.188 13.1719 144.188 12.7656V12.625C144.188 11.8229 143.896 11.1667 143.312 10.6562C142.729 10.1354 141.911 9.875 140.859 9.875C139.807 9.875 138.948 10.1302 138.281 10.6406C137.615 11.1406 137.25 11.7708 137.188 12.5312H133.953C134.026 10.9583 134.688 9.67188 135.938 8.67188C137.188 7.67188 138.844 7.17188 140.906 7.17188C142.938 7.17188 144.536 7.67188 145.703 8.67188C146.87 9.67188 147.453 11.0104 147.453 12.6875V24H144.203V21.6562H144.141C143.797 22.3229 143.25 22.9271 142.5 23.4688C141.76 24 140.682 24.2656 139.266 24.2656ZM139.938 21.6094C141.396 21.6094 142.469 21.2344 143.156 20.4844C143.854 19.724 144.203 18.8385 144.203 17.8281V15.8906C143.984 16.0677 143.49 16.2292 142.719 16.375C141.948 16.5104 141.125 16.6406 140.25 16.7656C139.344 16.901 138.547 17.1562 137.859 17.5312C137.172 17.9062 136.828 18.5104 136.828 19.3438C136.828 20.0521 137.104 20.6094 137.656 21.0156C138.219 21.4115 138.979 21.6094 139.938 21.6094ZM151.172 24V7.5H154.328V10.1719H154.391C154.693 9.26562 155.167 8.5625 155.812 8.0625C156.469 7.55208 157.323 7.29688 158.375 7.29688C158.625 7.29688 158.854 7.30729 159.062 7.32812C159.271 7.34896 159.443 7.36458 159.578 7.375V10.4531C159.453 10.4219 159.229 10.3906 158.906 10.3594C158.583 10.3177 158.229 10.2969 157.844 10.2969C156.917 10.2969 156.12 10.6198 155.453 11.2656C154.797 11.9115 154.469 12.9062 154.469 14.25V24H151.172ZM162.141 24V7.5H165.344V10.2656C165.854 9.24479 166.547 8.47396 167.422 7.95312C168.297 7.43229 169.245 7.17188 170.266 7.17188C171.391 7.17188 172.375 7.45833 173.219 8.03125C174.073 8.60417 174.672 9.33333 175.016 10.2188C175.464 9.32292 176.141 8.59375 177.047 8.03125C177.964 7.45833 179.031 7.17188 180.25 7.17188C181.271 7.17188 182.198 7.39583 183.031 7.84375C183.865 8.29167 184.526 8.95833 185.016 9.84375C185.505 10.7188 185.75 11.8177 185.75 13.1406V24H182.438V13.4219C182.438 12.2448 182.109 11.3906 181.453 10.8594C180.797 10.3281 180.021 10.0625 179.125 10.0625C178.021 10.0625 177.151 10.4062 176.516 11.0938C175.88 11.7708 175.562 12.6354 175.562 13.6875V24H172.312V13.2031C172.312 12.2552 172.005 11.4948 171.391 10.9219C170.786 10.349 170.016 10.0625 169.078 10.0625C168.12 10.0625 167.271 10.401 166.531 11.0781C165.802 11.7552 165.438 12.7448 165.438 14.0469V24H162.141ZM194.516 24.2656C192.87 24.2656 191.505 23.849 190.422 23.0156C189.339 22.1719 188.797 20.9271 188.797 19.2812C188.797 18.0312 189.104 17.0729 189.719 16.4062C190.344 15.7292 191.151 15.2448 192.141 14.9531C193.141 14.6615 194.198 14.4479 195.312 14.3125C196.344 14.1875 197.161 14.0833 197.766 14C198.37 13.9167 198.797 13.7917 199.047 13.625C199.307 13.4583 199.438 13.1719 199.438 12.7656V12.625C199.438 11.8229 199.146 11.1667 198.562 10.6562C197.979 10.1354 197.161 9.875 196.109 9.875C195.057 9.875 194.198 10.1302 193.531 10.6406C192.865 11.1406 192.5 11.7708 192.438 12.5312H189.203C189.276 10.9583 189.938 9.67188 191.188 8.67188C192.438 7.67188 194.094 7.17188 196.156 7.17188C198.188 7.17188 199.786 7.67188 200.953 8.67188C202.12 9.67188 202.703 11.0104 202.703 12.6875V24H199.453V21.6562H199.391C199.047 22.3229 198.5 22.9271 197.75 23.4688C197.01 24 195.932 24.2656 194.516 24.2656ZM195.188 21.6094C196.646 21.6094 197.719 21.2344 198.406 20.4844C199.104 19.724 199.453 18.8385 199.453 17.8281V15.8906C199.234 16.0677 198.74 16.2292 197.969 16.375C197.198 16.5104 196.375 16.6406 195.5 16.7656C194.594 16.901 193.797 17.1562 193.109 17.5312C192.422 17.9062 192.078 18.5104 192.078 19.3438C192.078 20.0521 192.354 20.6094 192.906 21.0156C193.469 21.4115 194.229 21.6094 195.188 21.6094ZM10.7656 53.3281C8.70312 53.3281 6.89062 52.8229 5.32812 51.8125C3.76562 50.7917 2.54688 49.3854 1.67188 47.5938C0.807292 45.7917 0.375 43.7188 0.375 41.375C0.375 39.0104 0.807292 36.9323 1.67188 35.1406C2.54688 33.3385 3.76042 31.9323 5.3125 30.9219C6.875 29.901 8.69271 29.3906 10.7656 29.3906C12.4635 29.3906 13.9688 29.7396 15.2812 30.4375C16.5938 31.125 17.6667 32.0573 18.5 33.2344C19.3333 34.4115 19.8802 35.724 20.1406 37.1719H17.9688C17.7396 36.0573 17.3021 35.0677 16.6562 34.2031C16.0104 33.3281 15.1875 32.6406 14.1875 32.1406C13.1979 31.6302 12.0573 31.375 10.7656 31.375C9.15104 31.375 7.71875 31.7865 6.46875 32.6094C5.22917 33.4219 4.25521 34.5781 3.54688 36.0781C2.83854 37.5677 2.48438 39.3333 2.48438 41.375C2.48438 43.4167 2.83854 45.1823 3.54688 46.6719C4.25521 48.1615 5.22917 49.3125 6.46875 50.125C7.71875 50.9375 9.15104 51.3438 10.7656 51.3438C12.0469 51.3438 13.1823 51.0938 14.1719 50.5938C15.1719 50.0938 15.9948 49.4062 16.6406 48.5312C17.2865 47.6562 17.7344 46.6719 17.9844 45.5781H20.1406C19.8906 47.0156 19.3438 48.3229 18.5 49.5C17.6667 50.6667 16.5938 51.599 15.2812 52.2969C13.9688 52.9844 12.4635 53.3281 10.7656 53.3281ZM30.0781 53.3281C28.5885 53.3281 27.276 52.9635 26.1406 52.2344C25.0156 51.5052 24.1354 50.4948 23.5 49.2031C22.875 47.9115 22.5625 46.4323 22.5625 44.7656C22.5625 43.099 22.875 41.6198 23.5 40.3281C24.1354 39.026 25.0156 38.0104 26.1406 37.2812C27.276 36.5417 28.5885 36.1719 30.0781 36.1719C31.5677 36.1719 32.875 36.5417 34 37.2812C35.1354 38.0104 36.0156 39.026 36.6406 40.3281C37.276 41.6198 37.5938 43.099 37.5938 44.7656C37.5938 46.4323 37.276 47.9115 36.6406 49.2031C36.0156 50.4948 35.1354 51.5052 34 52.2344C32.875 52.9635 31.5677 53.3281 30.0781 53.3281ZM30.0781 51.4844C31.7552 51.4844 33.0885 50.8698 34.0781 49.6406C35.0677 48.401 35.5625 46.776 35.5625 44.7656C35.5625 42.7552 35.0677 41.1302 34.0781 39.8906C33.0885 38.6406 31.7552 38.0156 30.0781 38.0156C28.4115 38.0156 27.0781 38.6354 26.0781 39.875C25.0885 41.1146 24.5938 42.7448 24.5938 44.7656C24.5938 46.776 25.0885 48.401 26.0781 49.6406C27.0677 50.8698 28.401 51.4844 30.0781 51.4844ZM40.7031 53V36.5H42.6719V39.2812C43.1615 38.2708 43.8594 37.5052 44.7656 36.9844C45.6719 36.4635 46.6354 36.2031 47.6562 36.2031C48.8021 36.2031 49.8021 36.5052 50.6562 37.1094C51.5104 37.7135 52.1094 38.474 52.4531 39.3906C52.8802 38.4635 53.5521 37.7031 54.4688 37.1094C55.3958 36.5052 56.4792 36.2031 57.7188 36.2031C59.2708 36.2031 60.5625 36.7135 61.5938 37.7344C62.625 38.7448 63.1406 40.2344 63.1406 42.2031V53H61.1406V42.2031C61.1406 40.7865 60.7604 39.7448 60 39.0781C59.2396 38.4115 58.3125 38.0781 57.2188 38.0781C55.9375 38.0781 54.901 38.474 54.1094 39.2656C53.3177 40.0573 52.9219 41.1094 52.9219 42.4219V53H50.9219V42.0156C50.9219 40.7969 50.5625 39.8385 49.8438 39.1406C49.1354 38.4323 48.2188 38.0781 47.0938 38.0781C46.3021 38.0781 45.5729 38.2604 44.9062 38.625C44.25 38.9896 43.7188 39.5208 43.3125 40.2188C42.9062 40.9062 42.7031 41.7344 42.7031 42.7031V53H40.7031ZM67.1719 59.5312V36.5H69.1406V39.6094H69.1562C69.6146 38.5573 70.3542 37.7292 71.375 37.125C72.3958 36.5104 73.526 36.2031 74.7656 36.2031C76.1719 36.2031 77.4115 36.5625 78.4844 37.2812C79.5677 38 80.4167 39 81.0312 40.2812C81.6458 41.5625 81.9531 43.0521 81.9531 44.75C81.9531 46.4479 81.6458 47.9427 81.0312 49.2344C80.4271 50.5156 79.5833 51.5156 78.5 52.2344C77.4271 52.9427 76.1823 53.2969 74.7656 53.2969C73.526 53.2969 72.4167 52.9948 71.4375 52.3906C70.4583 51.7865 69.7135 50.9479 69.2031 49.875H69.1719V59.5312H67.1719ZM74.4844 51.4531C76.0573 51.4531 77.3542 50.875 78.375 49.7188C79.4062 48.5521 79.9219 46.8958 79.9219 44.75C79.9219 42.6042 79.4062 40.9479 78.375 39.7812C77.3542 38.6146 76.0573 38.0312 74.4844 38.0312C72.8281 38.0312 71.5052 38.6406 70.5156 39.8594C69.526 41.0781 69.0312 42.7083 69.0312 44.75C69.0312 46.7917 69.526 48.4219 70.5156 49.6406C71.5052 50.849 72.8281 51.4531 74.4844 51.4531ZM91.6719 53.3281C90.1823 53.3281 88.8698 52.9635 87.7344 52.2344C86.6094 51.5052 85.7292 50.4948 85.0938 49.2031C84.4688 47.9115 84.1562 46.4323 84.1562 44.7656C84.1562 43.099 84.4688 41.6198 85.0938 40.3281C85.7292 39.026 86.6094 38.0104 87.7344 37.2812C88.8698 36.5417 90.1823 36.1719 91.6719 36.1719C93.1615 36.1719 94.4688 36.5417 95.5938 37.2812C96.7292 38.0104 97.6094 39.026 98.2344 40.3281C98.8698 41.6198 99.1875 43.099 99.1875 44.7656C99.1875 46.4323 98.8698 47.9115 98.2344 49.2031C97.6094 50.4948 96.7292 51.5052 95.5938 52.2344C94.4688 52.9635 93.1615 53.3281 91.6719 53.3281ZM91.6719 51.4844C93.349 51.4844 94.6823 50.8698 95.6719 49.6406C96.6615 48.401 97.1562 46.776 97.1562 44.7656C97.1562 42.7552 96.6615 41.1302 95.6719 39.8906C94.6823 38.6406 93.349 38.0156 91.6719 38.0156C90.0052 38.0156 88.6719 38.6354 87.6719 39.875C86.6823 41.1146 86.1875 42.7448 86.1875 44.7656C86.1875 46.776 86.6823 48.401 87.6719 49.6406C88.6615 50.8698 89.9948 51.4844 91.6719 51.4844ZM108.359 53.2969C107.224 53.2969 106.198 53.0521 105.281 52.5625C104.365 52.0729 103.635 51.3542 103.094 50.4062C102.562 49.4479 102.297 48.2865 102.297 46.9219V36.5H104.297V46.7969C104.297 48.276 104.693 49.4167 105.484 50.2188C106.276 51.0208 107.349 51.4219 108.703 51.4219C110.047 51.4219 111.177 51.0104 112.094 50.1875C113.021 49.3646 113.484 48.1406 113.484 46.5156V36.5H115.5V53H113.531V50.3594C112.979 51.3594 112.255 52.099 111.359 52.5781C110.464 53.0573 109.464 53.2969 108.359 53.2969ZM121.547 42.9844V53H119.547V36.5H121.516V39.1406C122.068 38.1406 122.792 37.401 123.688 36.9219C124.583 36.4427 125.578 36.2031 126.672 36.2031C127.818 36.2031 128.849 36.4479 129.766 36.9375C130.682 37.4271 131.406 38.1458 131.938 39.0938C132.479 40.0417 132.75 41.2031 132.75 42.5781V53H130.734V42.7031C130.734 41.224 130.339 40.0833 129.547 39.2812C128.766 38.4792 127.698 38.0781 126.344 38.0781C125 38.0781 123.865 38.4896 122.938 39.3125C122.01 40.1354 121.547 41.3594 121.547 42.9844ZM143.062 53.2969C141.646 53.2969 140.396 52.9427 139.312 52.2344C138.24 51.5156 137.396 50.5156 136.781 49.2344C136.177 47.9427 135.875 46.4479 135.875 44.75C135.875 43.0521 136.177 41.5625 136.781 40.2812C137.396 39 138.245 38 139.328 37.2812C140.411 36.5625 141.656 36.2031 143.062 36.2031C144.302 36.2031 145.422 36.5104 146.422 37.125C147.432 37.7292 148.167 38.5573 148.625 39.6094H148.641V29.7188H150.656V53H148.688V49.875H148.656C148.146 50.9479 147.396 51.7865 146.406 52.3906C145.417 52.9948 144.302 53.2969 143.062 53.2969ZM143.328 51.4531C144.984 51.4531 146.307 50.849 147.297 49.6406C148.297 48.4219 148.797 46.7917 148.797 44.75C148.797 42.7083 148.297 41.0781 147.297 39.8594C146.307 38.6406 144.984 38.0312 143.328 38.0312C141.766 38.0312 140.469 38.6146 139.438 39.7812C138.417 40.9479 137.906 42.6042 137.906 44.75C137.906 46.8958 138.417 48.5521 139.438 49.7188C140.469 50.875 141.766 51.4531 143.328 51.4531Z" fill="#294060"/>
</svg>
