<svg width="86" height="86" viewBox="0 0 86 86" fill="none" xmlns="http://www.w3.org/2000/svg">
<path fill-rule="evenodd" clip-rule="evenodd" d="M42.9142 0C58.9135 0 72.8657 8.7733 80.2454 21.78C73.186 10.4701 60.6467 2.94578 46.3517 2.94578C38.13 2.94578 30.4907 5.43604 24.1384 9.703C27.332 9.64698 30.6504 9.57602 33.7496 9.73242C38.4964 7.47587 43.8055 6.21354 49.4087 6.21354C69.6176 6.21354 86 22.6289 86 42.8783C86 44.7275 85.8619 46.5449 85.5981 48.3211C83.3456 70.0317 63.1516 81.0717 49.0793 81.072C23.3167 81.0727 6.91393 57.9922 10.7437 41.8862C11.5218 38.6139 13.8085 36.4258 17.7743 34.9732C15.1223 31.7507 13.1669 27.6834 11.7441 22.9706C8.3473 28.8561 6.40118 35.6887 6.40118 42.9763C6.40118 65.085 24.288 83.0068 46.3517 83.0068C60.8147 83.0068 73.4818 75.3059 80.4941 63.7736C73.1828 77.0247 59.0953 86 42.9142 86C19.2136 86 0 66.748 0 42.9997C0 32.5052 3.75158 22.8895 9.98525 15.4248C9.55328 12.9596 9.21779 10.3774 8.96405 7.69757C10.326 8.8992 12.7982 9.42011 15.8565 9.62665C23.2398 3.6093 32.6551 0 42.9142 0ZM62.4131 30.7341C63.2042 28.638 63.8487 27.4265 64.1977 25.1978C62.2023 30.5803 60.3871 32.7875 56.2887 36.216C54.132 37.5223 50.6455 40.1838 47.7493 43.5115C45.8222 39.4729 43.1388 36.5425 39.9494 33.8682C36.6328 31.8601 32.8937 25.9849 29.3097 16.3149C29.9354 20.3199 30.615 24.309 32.0365 28.0747C27.4535 25.4802 22.2489 21.5502 16.5592 16.5798C22.5722 23.0817 29.4774 28.8683 37.0709 34.1026C31.836 32.525 26.4368 31.7883 20.6486 33.0629C33.3916 33.4173 43.1907 36.5094 46.3117 45.2897C44.3558 47.9155 42.9091 50.8439 42.7572 53.7916C25.0052 52.5197 11.4068 47.6419 11.5935 42.3186C11.6764 39.976 14.4168 37.9069 18.976 36.3241C23.7575 41.297 30.556 43.8262 40.1423 42.9758C31.8104 42.6091 25.5838 40.0553 21.1439 35.6468L21.183 35.6351C20.7435 35.2081 20.3213 34.764 19.917 34.3017L19.898 34.3064C15.2671 28.9163 12.8804 21.1955 12.2831 11.6172C20.3406 12.7057 21.1073 12.3419 29.6388 12.0048C43.8925 11.8749 54.1069 19.5405 47.0183 37.6307C48.2007 36.1937 49.129 34.7166 49.8317 33.2286C51.6726 33.3197 53.4748 33.4504 55.2313 33.6167C55.25 34.0698 55.2826 34.5347 55.3315 35.0127C55.3455 34.5413 55.3723 34.0817 55.4112 33.6336L55.4897 33.641C55.5331 33.2251 55.5855 32.8198 55.6475 32.4241L55.5511 32.4187C56.5432 25.5064 60.6901 21.5608 67.204 19.8417L67.2238 19.8621C68.9316 19.4164 70.8134 19.1227 72.8659 18.968C72.3185 23.5204 72.5302 23.9657 72.7873 28.7994C72.841 31.1548 72.5183 33.32 71.7814 35.1126C71.5756 35.5667 71.3544 36.0025 71.1126 36.4157L71.129 36.4203C69.0493 39.8869 64.9466 41.347 58.4122 38.8801C63.9596 43.336 70.4501 41.271 72.8712 36.9402C73.908 37.2683 74.8843 37.6119 75.793 37.9708C75.9674 39.3334 76.0571 40.7233 76.0571 42.1338C76.0571 45.3422 75.5915 48.442 74.726 51.3689C68.7281 53.1519 60.1979 54.1897 50.6244 54.1064C50.2307 50.8318 49.5622 48.061 48.6603 45.6572C53.3542 39.1969 62.2518 33.763 68.8704 34.8467C65.6481 34.1379 62.3814 34.097 59.4673 34.9753C63.6939 32.0616 65.9769 29.2615 68.7016 24.5137C65.5345 27.2805 64.9636 29.2904 62.4131 30.7341ZM45.4513 53.9551C45.4519 52.1024 46.0418 50.1409 47.0618 48.2069C47.3594 49.9593 47.4411 51.8956 47.284 54.033H47.2773C46.6652 54.011 46.0562 53.985 45.4513 53.9551ZM74.1099 31.0267C74.0593 32.5266 73.9167 33.9403 73.5977 35.1497L73.5644 35.2674C74.2196 35.4681 74.8512 35.6767 75.4592 35.8951C75.1337 34.2229 74.6808 32.5963 74.1099 31.0267ZM55.2136 32.401C55.3302 25.0182 59.5802 20.9649 66.1721 18.7969C60.3451 13.1542 52.4126 9.68178 43.6695 9.68178C41.7784 9.68178 39.9254 9.84395 38.1232 10.1563C39.0727 10.3044 39.9801 10.4913 40.8265 10.7283C48.887 12.9856 54.1264 22.7105 50.262 32.2502C51.9586 32.2679 53.6105 32.3191 55.2136 32.401ZM15.0028 48.6103C16.1441 49.5599 17.4344 49.8122 18.7337 50.0492C19.5919 60.1179 25.3222 66.0232 31.5815 71.4753C22.604 66.4277 16.7886 59.0425 15.0028 48.6103Z" fill="#294060"/>
</svg>
