<svg width="60" height="38" viewBox="0 0 60 38" fill="none" xmlns="http://www.w3.org/2000/svg">
<rect width="60" height="38" rx="19" fill="#294060"/>
<path fill-rule="evenodd" clip-rule="evenodd" d="M34.5272 12.6L33.322 13.0512C33.2078 13.0934 33.1309 13.1145 33.0196 13.1579C32.966 13.1784 32.9141 13.1929 32.8803 13.2034C32.7433 13.2468 32.3878 13.4212 32.1361 13.4768C32.1314 13.4801 32.1238 13.4785 32.1215 13.4851L32.0755 13.5068C32.0446 13.519 32.0213 13.524 31.9892 13.5346L30.664 14.0241C30.2152 14.2152 29.2997 14.5147 28.8084 14.6997L27.3544 15.2303L25.7191 15.841C25.3921 15.9665 25.0314 16.0721 24.7062 16.2121L24.2901 16.3638C24.2033 16.3988 24.1799 16.4133 24.0785 16.4405C24.0727 16.4421 24.0453 16.4494 24.0407 16.451C24.0377 16.4522 24.0319 16.4549 24.029 16.456L22.8815 16.8839C22.7387 16.9355 22.6006 16.9767 22.4654 17.035C22.3232 17.0961 22.2055 17.1367 22.054 17.1906L21.4723 17.4034C21.1407 17.5284 20.8097 17.6212 20.5043 17.7956C20.1675 17.989 19.8056 18.3079 20.1215 18.6846L20.1914 18.7502C20.5306 19.0264 21.4123 19.1964 21.8861 19.3481C22.174 19.4403 22.4485 19.5114 22.7422 19.6053L23.8565 19.9492C23.8594 19.9504 23.8658 19.9526 23.8687 19.9531L24.8583 20.2404C25.1182 20.311 25.1812 20.4082 25.3729 20.2893L26.236 19.7753C26.2605 19.7598 26.2494 19.7664 26.2774 19.7487C26.5717 19.5625 27.6492 18.9025 27.9138 18.7669C28.0071 18.7197 28.0158 18.703 28.0945 18.6535L28.4389 18.4596C28.4412 18.4585 28.4471 18.4557 28.4494 18.4541C28.4517 18.453 28.4576 18.4496 28.4599 18.448L28.9279 18.1551C29.5742 17.7862 30.203 17.3845 30.844 17.0011L32.2468 16.1688C32.368 16.0943 32.4752 16.0249 32.5971 15.9532L33.6705 15.3126C33.6746 15.3098 33.6804 15.3065 33.6845 15.3037L34.4579 14.8358C34.5173 14.7986 34.5832 14.7614 34.6432 14.7275L35.6998 14.0907C35.8606 13.9874 36.3175 13.7157 36.504 13.9813C36.4696 14.1213 36.3414 14.2408 36.2219 14.3236L36.0733 14.4469C36.0471 14.4719 36.0407 14.4752 36.0127 14.4991C36.0092 14.5019 36.004 14.5058 36.0005 14.5091L35.5675 14.8853C35.4777 14.972 35.4049 15.0164 35.3146 15.1042L34.4287 15.8599C34.3809 15.9037 34.3518 15.9399 34.3029 15.981L34.1496 16.0982C34.1298 16.1177 34.1379 16.1116 34.1164 16.1321C34.1 16.1482 34.1047 16.1449 34.082 16.1649L32.5038 17.5101C32.4484 17.589 32.4106 17.6134 32.34 17.6606L32.2177 17.7634C32.2142 17.7662 32.2089 17.7706 32.206 17.7734L31.8196 18.1068C31.7753 18.1462 31.7497 18.1768 31.7054 18.2174L30.3236 19.3981C30.3184 19.4025 30.3038 19.4142 30.2986 19.4186C30.2951 19.4214 30.2904 19.4258 30.2869 19.4286C30.2834 19.432 30.2782 19.4364 30.2747 19.4392L29.9786 19.7048C29.8813 19.7792 29.8312 19.8353 29.7321 19.9081L29.2624 20.3154C29.2589 20.3182 29.2536 20.3226 29.2501 20.3254L27.8655 21.5261C27.8206 21.59 27.8165 21.7884 27.8118 21.8928L27.7314 23.0218C27.6999 23.1658 27.6417 24.5615 27.6009 24.8465L27.5152 26.0139C28.01 26.0139 28.214 25.7977 28.4634 25.5594C28.5904 25.4383 28.7041 25.3521 28.8317 25.2305C28.9413 25.1254 29.0759 24.9799 29.1901 24.8932C29.3434 24.7765 29.6884 24.432 29.9238 24.2337L30.6645 23.5591L30.9449 23.7525C30.9489 23.7553 30.9548 23.7586 30.9583 23.7614L32.5038 24.8526L35.2365 26.7779C35.2394 26.779 35.2452 26.7823 35.2475 26.7834L35.645 26.9429C35.9918 27.0468 36.2552 27.0084 36.4877 26.8318C36.5133 26.8123 36.5308 26.7984 36.5501 26.7812C36.5734 26.7612 36.5984 26.739 36.6182 26.7145C36.6212 26.7106 36.6247 26.7056 36.6276 26.7017L36.6707 26.6328C36.944 26.2028 36.9394 25.9367 37.0454 25.4783C37.0454 25.4777 37.0588 25.426 37.0594 25.4255L37.0786 25.3782C37.0874 25.2782 37.1235 25.1493 37.1422 25.0665L38.6527 18.284C38.7273 17.8829 38.8427 17.4667 38.9261 17.0694L39.1026 16.2732C39.1533 16.0788 39.2122 15.7021 39.2885 15.4304L39.5286 14.3224C39.6283 13.8929 39.7204 13.4768 39.809 13.0551C39.8882 12.6745 40.0584 12.1827 39.9797 11.7416C39.9611 11.6366 39.9045 11.4521 39.8463 11.3643C39.7157 11.1659 39.4511 11.0143 39.1941 11.0009C38.7291 10.9776 37.8695 11.4032 37.4207 11.5454C36.9178 11.7049 36.2091 11.9994 35.6963 12.1805L34.8326 12.4972C34.7452 12.5322 34.6146 12.5811 34.5272 12.6Z" fill="white"/>
<path fill-rule="evenodd" clip-rule="evenodd" d="M34.5268 12.6V12.5786L34.5 12.5967L34.5268 12.6Z" fill="white"/>
<path fill-rule="evenodd" clip-rule="evenodd" d="M32.5034 17.5102V17.4883L32.4766 17.5064L32.5034 17.5102Z" fill="white"/>
<path fill-rule="evenodd" clip-rule="evenodd" d="M37.0781 25.3784V25.4004L37.1049 25.3823L37.0781 25.3784Z" fill="white"/>
<path fill-rule="evenodd" clip-rule="evenodd" d="M32.5032 24.853H32.4805L32.4997 24.8783L32.5032 24.853Z" fill="white"/>
<path fill-rule="evenodd" clip-rule="evenodd" d="M32.1362 13.477V13.4556L32.1094 13.4737L32.1362 13.477Z" fill="white"/>
<path fill-rule="evenodd" clip-rule="evenodd" d="M27.3549 15.2299V15.2085L27.3281 15.2266L27.3549 15.2299Z" fill="white"/>
</svg>
