<svg width="60" height="38" viewBox="0 0 60 38" fill="none" xmlns="http://www.w3.org/2000/svg">
<rect width="60" height="38" rx="19" fill="#294060"/>
<path fill-rule="evenodd" clip-rule="evenodd" d="M20.1152 17.3618C20.1152 18.5059 20.5781 19.6714 20.9588 20.4335C21.6387 21.7893 22.4836 23.1164 23.4948 24.2505C23.6671 24.4435 24.0131 24.8903 24.1954 25.0292C24.3998 25.1862 24.5066 25.3131 24.7063 25.4727C26.1483 26.6369 27.1575 27.439 28.8707 28.2331C29.6387 28.5904 30.9425 29.0486 32.0151 28.9264C33.1525 28.7962 34.139 28.4215 34.9471 27.9426C35.593 27.5592 36.7818 26.5954 36.7818 25.8147C36.7818 24.6986 36.5708 23.9873 35.5783 23.3395C34.6005 22.7016 32.5881 21.8447 31.6711 23.1398C30.2752 25.106 28.9555 24.6345 27.4814 23.2707C27.2864 23.0923 27.1996 22.9835 26.9859 22.8118C26.7421 22.6188 25.417 21.1882 25.1485 20.7814C25.0062 20.5644 24.9014 20.4174 24.7952 20.1803C24.347 19.1832 24.7972 18.2274 25.5392 17.6744C26.2378 17.1548 26.6098 16.9056 26.6098 15.9299C26.6098 15.0389 26.0949 14.0357 25.7222 13.4753C25.0797 12.5069 23.772 11.8958 22.7407 12.4434C21.1799 13.269 20.1152 15.8544 20.1152 17.3618ZM31.0981 9.10131L31.1007 10.3449C31.1542 10.6141 31.1876 10.4384 31.3372 10.4384C32.8606 10.4384 34.2238 10.7991 35.3679 11.5645C35.5563 11.6914 35.7099 11.7916 35.8749 11.9178C36.6576 12.5142 37.3556 13.4072 37.8011 14.2902C38.4255 15.5351 38.5003 16.4274 38.5003 17.84H39.8849C39.8849 16.0962 39.7834 15.2666 39.0574 13.6998C38.7748 13.0906 38.0362 12.0534 37.582 11.5959L37.055 11.1183C36.9315 10.9995 36.9041 10.9781 36.7752 10.8732L36.1707 10.4284C34.7601 9.54145 33.2727 9.05322 31.3846 9.05322C31.221 9.05322 31.2837 9.08194 31.0981 9.10131ZM36.0178 17.6263V18.6041H37.4017L37.4077 17.7392C37.4077 17.7318 37.3997 17.6023 37.3997 17.6009C37.3569 17.436 37.4297 17.5562 37.3115 17.4567C37.5473 16.7674 36.5848 14.6969 35.9804 14.0083C35.7172 13.7111 35.4962 13.4306 35.1909 13.1741C34.5451 12.6305 33.9907 12.3005 33.1525 11.9652C32.7872 11.8183 32.3076 11.6961 31.8615 11.6346C31.6237 11.6019 31.3726 11.6019 31.1188 11.5638C30.7374 11.5071 30.6953 11.5839 30.3814 11.5839V12.9684C30.8323 12.9684 30.6426 12.8595 31.5636 12.9811C32.5421 13.1073 33.5165 13.5715 34.2365 14.176C34.9972 14.8178 35.4614 15.5799 35.772 16.5089C35.9049 16.903 35.937 17.1895 36.0178 17.6263ZM30.4776 14.1893C30.4415 14.1205 30.5063 14.1185 30.2425 14.1105C29.2721 14.0744 29.5225 14.0163 29.5225 15.5472C29.7943 15.5472 29.58 15.5625 29.6661 15.4717C30.3467 15.622 30.5177 15.3548 31.6083 15.8971C32.1654 16.175 32.5421 16.5229 32.876 17.0172C33.3061 17.655 33.3776 18.023 33.4484 18.7884C33.4851 19.1865 33.4203 19.0863 33.4337 19.2747C33.4504 19.5345 33.5833 19.4697 33.8658 19.465C34.7528 19.4497 34.7748 19.5826 34.8416 19.2426C35.0139 18.373 34.4997 16.8649 33.9293 16.1075C33.5212 15.5605 32.9555 15.0175 32.325 14.7029C31.9536 14.5193 31.0293 14.0731 30.4776 14.1893Z" fill="white"/>
</svg>
